<svg width="20" height="20" viewBox="0 0 20 20" fill="none" xmlns="http://www.w3.org/2000/svg">
<path d="M19.1867 4.87422L15.3757 1.06328C15.2 0.8875 14.9843 0.758594 14.75 0.688281V0.625H1.62495C1.21011 0.625 0.874954 0.960156 0.874954 1.375V18.625C0.874954 19.0398 1.21011 19.375 1.62495 19.375H18.875C19.2898 19.375 19.625 19.0398 19.625 18.625V5.93359C19.625 5.53516 19.4679 5.15547 19.1867 4.87422ZM7.24995 2.3125H13.25V4.75H7.24995V2.3125ZM17.9375 17.6875H2.56245V2.3125H5.74995V5.5C5.74995 5.91484 6.08511 6.25 6.49995 6.25H14C14.4148 6.25 14.75 5.91484 14.75 5.5V2.82344L17.9375 6.01094V17.6875ZM10.25 8.35938C8.38667 8.35938 6.87495 9.87109 6.87495 11.7344C6.87495 13.5977 8.38667 15.1094 10.25 15.1094C12.1132 15.1094 13.625 13.5977 13.625 11.7344C13.625 9.87109 12.1132 8.35938 10.25 8.35938ZM10.25 13.6094C9.21402 13.6094 8.37495 12.7703 8.37495 11.7344C8.37495 10.6984 9.21402 9.85938 10.25 9.85938C11.2859 9.85938 12.125 10.6984 12.125 11.7344C12.125 12.7703 11.2859 13.6094 10.25 13.6094Z" fill="#8C8C8C"/>
</svg>
